<?xml version="1.0" encoding="iso-8859-1"?>
<!-- Generator: Adobe Illustrator 23.0.2, SVG Export Plug-In . SVG Version: 6.00 Build 0)  -->
<svg version="1.1" id="Livello_1" xmlns="http://www.w3.org/2000/svg" xmlns:xlink="http://www.w3.org/1999/xlink" x="0px" y="0px"
	 viewBox="0 0 157.314 36.346" style="enable-background:new 0 0 157.314 36.346;" xml:space="preserve">
<g>
	<rect style="fill:none;" width="65.651" height="29.187"/>
	<g style="enable-background:new    ;">
		<path style="fill:#181818;" d="M19.064,0v28.457h-4.168l-0.222-2.094c-1.334,1.643-3.119,2.464-5.354,2.464
			c-1.581,0-2.967-0.438-4.159-1.315c-1.192-0.876-2.109-2.087-2.751-3.631c-0.643-1.544-0.963-3.285-0.963-5.225v-0.389
			c0-2.025,0.317-3.81,0.954-5.354c0.636-1.544,1.55-2.742,2.742-3.594C6.333,8.466,7.738,8.04,9.356,8.04
			c2.1,0,3.798,0.735,5.095,2.205V0H19.064z M14.45,22.639v-8.485c-0.803-1.568-2.112-2.353-3.928-2.353
			c-1.507,0-2.627,0.6-3.362,1.797c-0.735,1.198-1.103,2.754-1.103,4.668v0.389c0,1.902,0.361,3.443,1.084,4.622
			c0.723,1.18,1.837,1.77,3.344,1.77C12.314,25.048,13.636,24.245,14.45,22.639z"/>
		<path style="fill:#181818;" d="M40.314,8.411v20.046H35.96l-0.111-1.982c-1.309,1.568-3.18,2.353-5.613,2.353
			c-2.075,0-3.699-0.604-4.873-1.815c-1.174-1.21-1.76-3.094-1.76-5.65V8.411h4.613v12.987c0,1.309,0.287,2.245,0.861,2.807
			c0.575,0.562,1.331,0.843,2.27,0.843c2.137,0,3.582-0.76,4.335-2.278V8.411H40.314z"/>
		<path style="fill:#181818;" d="M61.768,19.879H48.707c0.086,1.025,0.352,1.933,0.796,2.723c0.445,0.791,1.047,1.408,1.807,1.853
			s1.646,0.667,2.659,0.667c2.075,0,3.742-0.815,5.002-2.445l2.464,2.39c-0.729,1.075-1.742,1.971-3.039,2.687
			s-2.866,1.074-4.706,1.074c-1.952,0-3.656-0.423-5.114-1.269s-2.575-2.004-3.353-3.474c-0.778-1.47-1.167-3.119-1.167-4.947v-0.76
			c0-2.062,0.396-3.875,1.186-5.437c0.79-1.562,1.877-2.77,3.261-3.622c1.383-0.852,2.939-1.278,4.668-1.278
			c1.89,0,3.477,0.414,4.761,1.241c1.285,0.828,2.245,1.986,2.881,3.474c0.636,1.488,0.954,3.214,0.954,5.178V19.879z
			 M57.211,16.192c-0.062-1.297-0.414-2.362-1.056-3.196c-0.643-0.834-1.643-1.25-3.001-1.25c-1.21,0-2.186,0.42-2.927,1.26
			c-0.741,0.84-1.217,2.02-1.426,3.539h8.411V16.192z"/>
	</g>
</g>
<g>
	<rect x="73.551" style="fill:none;" width="87.049" height="29.187"/>
	<g style="enable-background:new    ;">
		<path style="fill:#181818;" d="M89.882,9.3c1.179,0.84,2.072,2.026,2.678,3.557c0.604,1.532,0.906,3.323,0.906,5.373v0.389
			c0,1.964-0.305,3.718-0.916,5.262s-1.504,2.755-2.677,3.631c-1.174,0.878-2.575,1.315-4.206,1.315
			c-2.149,0-3.891-0.722-5.225-2.167v9.504h-4.613V8.411h4.243l0.185,2.02c1.346-1.593,3.131-2.39,5.354-2.39
			C87.279,8.04,88.702,8.46,89.882,9.3z M88.853,18.23c0-1.902-0.374-3.449-1.121-4.641c-0.748-1.192-1.88-1.788-3.399-1.788
			c-1.804,0-3.101,0.748-3.891,2.242v8.799c0.803,1.52,2.112,2.279,3.928,2.279c1.506,0,2.63-0.604,3.372-1.815
			c0.741-1.21,1.112-2.772,1.112-4.688V18.23z"/>
		<path style="fill:#181818;" d="M113.79,8.411v20.046h-4.354l-0.111-1.982c-1.31,1.568-3.181,2.353-5.614,2.353
			c-2.074,0-3.699-0.604-4.872-1.815c-1.174-1.21-1.76-3.094-1.76-5.65V8.411h4.613v12.987c0,1.309,0.287,2.245,0.861,2.807
			c0.574,0.562,1.33,0.843,2.27,0.843c2.137,0,3.581-0.76,4.335-2.278V8.411H113.79z"/>
		<path style="fill:#181818;" d="M133.253,9.81c1.105,1.18,1.658,3.084,1.658,5.715v12.932h-4.613V15.488
			c0-1.334-0.287-2.282-0.861-2.844s-1.454-0.843-2.641-0.843c-0.864,0-1.637,0.21-2.315,0.63c-0.68,0.42-1.223,1.006-1.631,1.76
			v14.266h-4.612V8.411h4.335l0.148,2.316c0.716-0.864,1.568-1.528,2.557-1.992c0.987-0.463,2.074-0.695,3.261-0.695
			C130.575,8.04,132.147,8.63,133.253,9.81z"/>
		<path style="fill:#181818;" d="M148.805,24.826v3.557c-0.89,0.297-1.89,0.444-3.001,0.444c-1.631,0-2.915-0.45-3.854-1.352
			c-0.939-0.902-1.408-2.341-1.408-4.317V11.819h-3.261V8.411h3.261V3.52h4.613v4.891h3.52v3.409h-3.52v11.023
			c0,0.841,0.173,1.412,0.519,1.715s0.864,0.453,1.556,0.453C147.724,25.01,148.25,24.949,148.805,24.826z"/>
		<path style="fill:#181818;" d="M156.587,1.436c0.47,0.463,0.704,1.053,0.704,1.769c0,0.704-0.234,1.285-0.704,1.742
			c-0.469,0.457-1.105,0.686-1.908,0.686s-1.438-0.226-1.908-0.676c-0.469-0.451-0.704-1.035-0.704-1.751s0.235-1.306,0.704-1.769
			c0.47-0.463,1.105-0.695,1.908-0.695S156.118,0.972,156.587,1.436z M152.363,28.457V8.411h4.613v20.046H152.363z"/>
	</g>
</g>
<path style="fill:#D60000;" d="M70.269,23.282c-0.482-0.259-1.031-0.389-1.649-0.389s-1.164,0.13-1.639,0.389
	c-0.476,0.259-0.843,0.614-1.102,1.065c-0.259,0.451-0.389,0.954-0.389,1.51c0,0.556,0.13,1.06,0.389,1.51
	c0.259,0.451,0.627,0.806,1.102,1.065c0.475,0.259,1.021,0.389,1.639,0.389c0.618,0,1.167-0.13,1.649-0.389
	c0.482-0.259,0.853-0.614,1.112-1.065c0.259-0.451,0.389-0.954,0.389-1.51c0-0.556-0.13-1.059-0.389-1.51
	C71.122,23.897,70.751,23.541,70.269,23.282z"/>
<path style="fill:#00537D;" d="M70.269,9.127c-0.482-0.259-1.031-0.389-1.649-0.389s-1.164,0.13-1.639,0.389
	c-0.476,0.259-0.843,0.614-1.102,1.065c-0.259,0.451-0.389,0.954-0.389,1.51s0.13,1.06,0.389,1.51
	c0.259,0.451,0.627,0.806,1.102,1.065c0.475,0.259,1.021,0.389,1.639,0.389c0.618,0,1.167-0.13,1.649-0.389
	c0.482-0.259,0.853-0.614,1.112-1.065c0.259-0.451,0.389-0.954,0.389-1.51s-0.13-1.059-0.389-1.51
	C71.122,9.741,70.751,9.386,70.269,9.127z"/>
</svg>
